<svg width="240" height="133" xmlns="http://www.w3.org/2000/svg" xmlns:xlink="http://www.w3.org/1999/xlink" overflow="hidden"><g transform="translate(-536 -150)"><path d="M695.096 156.985C695.096 156.985 693.163 184.07 689.017 196.693 684.32 210.977 679.604 219.791 681.363 241.024 682.553 255.353 697.987 269.985 697.987 269.985" stroke="#000000" stroke-width="9.55895" stroke-linecap="round" stroke-linejoin="round" stroke-miterlimit="10" fill="#FFFFFF" fill-rule="evenodd" fill-opacity="0"/><path d="M696.07 221.987C696.07 221.987 691.074 240.018 702.553 246.29 709.396 250.031 714.988 237.495 714.988 237.495" stroke="#000000" stroke-width="9.55895" stroke-linecap="round" stroke-linejoin="round" stroke-miterlimit="10" fill="#FFFFFF" fill-rule="evenodd" fill-opacity="0"/><path d="M676.742 162.984C676.742 162.984 678.485 177.879 672.646 191.248 666.595 205.106 664.986 221.984 664.986 221.984" stroke="#000000" stroke-width="9.55895" stroke-linecap="round" stroke-linejoin="round" stroke-miterlimit="10" fill="#FFFFFF" fill-rule="evenodd" fill-opacity="0"/><path d="M770.991 178.773C770.991 178.773 759.307 161.607 746.175 158.028 735.841 155.215 724.705 154.424 716.356 161.472 706.698 169.629 706.445 187.685 706.007 200.295 705.706 208.955 709.625 220.984 709.625 220.984" stroke="#000000" stroke-width="9.55895" stroke-linecap="round" stroke-linejoin="round" stroke-miterlimit="10" fill="#FFFFFF" fill-rule="evenodd" fill-opacity="0"/><path d="M748.99 158.986C748.99 158.986 728.492 166.319 724.382 181.276 719.336 202.065 728.542 209.708 735.015 214.853 744.728 222.571 746.41 239.033 741.249 250.799 736.199 262.308 715.99 276.986 715.99 276.986" stroke="#000000" stroke-width="9.55895" stroke-linecap="round" stroke-linejoin="round" stroke-miterlimit="10" fill="#FFFFFF" fill-rule="evenodd" fill-opacity="0"/><path d="M730.991 170.984C730.991 170.984 743.051 174.323 750.21 180.603 754.656 184.503 760.251 192.292 758.739 198.835 756.918 206.729 739.89 213.984 739.89 213.984" stroke="#000000" stroke-width="9.55895" stroke-linecap="round" stroke-linejoin="round" stroke-miterlimit="10" fill="#FFFFFF" fill-rule="evenodd" fill-opacity="0"/><path d="M726.991 186.987C726.991 186.987 737.958 190.905 742.07 194.759 750.135 202.315 756.188 212.505 759.02 223.118 761.569 232.669 761.903 243.459 758.487 252.746 754.9 262.498 748.322 271.512 738.682 276.987" stroke="#000000" stroke-width="9.55895" stroke-linecap="round" stroke-linejoin="round" stroke-miterlimit="10" fill="#FFFFFF" fill-rule="evenodd" fill-opacity="0"/><path d="M723.607 224.987C723.607 224.987 731.224 232.579 728.336 241.045 725.448 249.511 718.99 255.987 718.99 255.987" stroke="#000000" stroke-width="9.55895" stroke-linecap="round" stroke-linejoin="round" stroke-miterlimit="10" fill="#FFFFFF" fill-rule="evenodd" fill-opacity="0"/><path d="M562.11 210.984C562.11 210.984 559.385 177.764 579.403 164.961 599.288 152.243 620.046 155.555 629.991 169.075 636.488 177.909 631.714 195.128 622.366 200.953 612.484 207.108 592.777 204.191 588.114 193.61 585.193 186.976 591.419 174.834 599.333 174.952 610.097 175.111 612.978 186.422 612.978 186.422" stroke="#000000" stroke-width="9.55895" stroke-linecap="round" stroke-linejoin="round" stroke-miterlimit="10" fill="#FFFFFF" fill-rule="evenodd" fill-opacity="0"/><path d="M556.18 226.142C555.047 220.504 558.93 211.96 564.696 211.067 570.681 210.144 577.696 217.335 577.975 223.301 578.215 228.497 572.702 234.516 567.437 234.962 562.662 235.365 557.113 230.778 556.18 226.142Z" stroke="#000000" stroke-width="9.55895" stroke-linecap="round" stroke-linejoin="round" stroke-miterlimit="10" fill="#FFFFFF" fill-rule="evenodd" fill-opacity="0"/><path d="M628.036 218.895C627.56 214.682 630.716 209.029 634.913 208.15 640.301 207.019 647.248 211.941 648.664 217.198 650.088 222.494 646.693 231.024 641.213 231.903 635.081 232.887 628.724 224.988 628.036 218.895Z" stroke="#000000" stroke-width="9.55895" stroke-linecap="round" stroke-linejoin="round" stroke-miterlimit="10" fill="#FFFFFF" fill-rule="evenodd" fill-opacity="0"/><path d="M577.986 223.414C577.986 223.414 584.319 224.412 602.018 223.771 615.845 223.265 629.518 222.866 625.161 220.986" stroke="#000000" stroke-width="9.55895" stroke-linecap="round" stroke-linejoin="round" stroke-miterlimit="10" fill="#FFFFFF" fill-rule="evenodd" fill-opacity="0"/><path d="M602.894 205.988C602.894 205.988 602.853 234.081 602.984 249.353 603.144 268.007 595.987 271.988 595.987 271.988" stroke="#000000" stroke-width="9.55895" stroke-linecap="round" stroke-linejoin="round" stroke-miterlimit="10" fill="#FFFFFF" fill-rule="evenodd" fill-opacity="0"/><path d="M585.044 257.988C585.044 257.988 575.797 242.705 596.501 241.115 617.441 239.507 620.986 253.657 620.986 253.657" stroke="#000000" stroke-width="9.55895" stroke-linecap="round" stroke-linejoin="round" stroke-miterlimit="10" fill="#FFFFFF" fill-rule="evenodd" fill-opacity="0"/><path d="M540.985 253.105C540.985 253.105 550.287 264.43 561.639 268.335 582.645 275.557 611.029 276.514 628.346 267.364 646.425 257.808 641.32 231.989 641.32 231.989" stroke="#000000" stroke-width="9.55895" stroke-linecap="round" stroke-linejoin="round" stroke-miterlimit="10" fill="#FFFFFF" fill-rule="evenodd" fill-opacity="0"/></g></svg>